<?xml version="1.0" standalone="no"?>
<!DOCTYPE svg PUBLIC "-//W3C//DTD SVG 20010904//EN"
 "http://www.w3.org/TR/2001/REC-SVG-20010904/DTD/svg10.dtd">
<svg version="1.0" xmlns="http://www.w3.org/2000/svg"
 width="260.000000pt" height="260.000000pt" viewBox="0 0 260.000000 260.000000"
 preserveAspectRatio="xMidYMid meet">
<metadata>
Created by potrace 1.11, written by Peter Selinger 2001-2013
</metadata>
<g transform="translate(0.000000,260.000000) scale(0.100000,-0.100000)"
fill="#000000" stroke="none">
<path d="M700 1853 c0 -7 -27 -70 -59 -140 -32 -70 -73 -159 -91 -198 -18 -38
-46 -99 -62 -135 -17 -36 -68 -146 -113 -245 -46 -99 -100 -216 -120 -260 -21
-44 -52 -113 -71 -152 l-33 -73 555 0 c356 0 554 4 554 10 0 5 -29 71 -65 146
-36 75 -65 138 -65 140 0 2 -21 48 -46 101 -25 54 -52 112 -59 128 -8 17 -39
83 -69 149 -31 65 -56 120 -56 121 0 2 -24 54 -53 116 -30 63 -69 148 -87 189
-37 81 -60 121 -60 103z m77 -290 c34 -76 121 -266 193 -423 73 -157 147 -317
165 -356 l32 -71 -453 0 c-348 0 -454 3 -454 12 0 7 20 55 44 106 50 108 65
140 228 494 66 143 132 286 146 318 15 31 29 57 32 57 3 0 33 -62 67 -137z"/>
<path d="M1555 1830 l-31 -5 0 -587 1 -588 472 0 c260 0 473 2 473 5 0 6 -12
23 -267 380 -117 163 -213 300 -213 303 0 4 108 115 240 247 132 132 240 242
240 245 0 7 -875 7 -915 0z m587 -818 c109 -152 198 -281 198 -287 0 -6 -132
-10 -375 -11 -338 -1 -375 0 -376 15 0 9 0 61 0 116 l1 100 172 172 c95 95
175 173 178 173 3 0 94 -125 202 -278z"/>
</g>
</svg>
